<svg xmlns="http://www.w3.org/2000/svg" viewBox="0 0 995.55 167.83"><defs><style>.cls-1{fill:#34a19e;}</style></defs><title>logo</title><g id="レイヤー_2" data-name="レイヤー 2"><g id="レイヤー_1-2" data-name="レイヤー 1"><path class="cls-1" d="M23.33,78.78c0,4,0,7.46-5.13,7.46-5.79,0-5.79-2.7-5.79-7.46v-27c-3.17,7.75-4.85,8.59-6.81,8.59A5.62,5.62,0,0,1,0,55c0-1.4,0-1.5,3.27-6.91a78.14,78.14,0,0,0,9-20.16H9.52c-3.73,0-7.47,0-7.47-5.23s3.74-5.23,7.47-5.23h2.89v-9c0-4,0-7.56,5.14-7.56,5.78,0,5.78,2.8,5.78,7.56v9c5.51,0,8.87.1,8.87,5.32s-3.36,5.14-8.87,5.14v3.17A111.33,111.33,0,0,0,32,42.75c2.06,2.43,3,3.55,3,5.6a5,5,0,0,1-4.67,5c-2.24,0-3.73-1.49-7-6ZM54.7,8.49c0-4,0-7.56,5-7.56,5.78,0,5.78,2.8,5.78,7.56v4.86H77.94c3.17,0,7.46,0,7.46,5.32s-4.29,5.22-7.46,5.22H65.52v9.43h14.1c3.92,0,7.46,0,7.46,5,0,5.6-3,5.6-7.46,5.6H72.15c3.36,8.21,7.37,16.24,13,23.05,3,3.64,3.55,5,3.55,6.91a5.66,5.66,0,0,1-5.6,5.51c-2.52,0-4.29-2-5.69-3.83A118.1,118.1,0,0,1,65.52,54V78.78c0,4,0,7.46-5,7.46-5.78,0-5.78-2.8-5.78-7.46V55.44A98.7,98.7,0,0,1,42.56,75.23c-2.89,3.36-4.29,4.39-6.44,4.39A5.9,5.9,0,0,1,30.43,74c0-2.15.65-2.9,4.48-7.19A73.64,73.64,0,0,0,46.3,49.66c.37-.84,2-4.95,2.24-5.79H40c-3.92,0-7.47,0-7.47-4.95,0-5.6,3-5.6,7.47-5.6H54.7V23.89H46.3c-2.43,6.35-3.74,7.85-6.35,7.85-2.8,0-6.07-2.15-6.07-4.86,0-1.31.37-2.15,1.5-4.39,2.52-5.32,3.73-10.82,4.85-16,.37-1.77,1.4-4,4.57-4,2.43,0,5.51,1.21,5.51,4.76a40.73,40.73,0,0,1-.93,6.07H54.7Z"/><path class="cls-1" d="M158.11,26.13c2.15,27.17,8,45.74,10.08,45.74,1.4,0,2-2.15,2.71-6.07.28-1.3.84-4.57,4.38-4.57,1.87,0,5.88.75,5.88,4.67a40.6,40.6,0,0,1-2,10.54c-1.59,4.86-4.2,10.46-10,10.46-5.22,0-8.49-3.64-12.22-11.3-7.84-16.24-9.62-38-10.55-49.47H102.29c-4,0-7.56,0-7.56-5,0-5.78,2.9-5.78,7.56-5.78h43.5C145.32,4.2,145.51,1,151,1c2,0,4.48.37,5.41,2.8.47,1.12.84,7.56,1,11.48h8.68c-2.24-3-5.7-7.66-5.7-10.18A5.36,5.36,0,0,1,165.86,0c2.89,0,4.29,1.59,7.18,5.13,3.64,4.48,4.2,5.88,4.2,7.47a3.34,3.34,0,0,1-1.12,2.71c3.64.37,4.39,2.8,4.39,5,0,5.78-2.71,5.78-7.47,5.78ZM124.42,70c2-.37,11.2-2.7,13.06-2.7a5.27,5.27,0,0,1,5.14,5.5c0,4.48-2.52,5.79-12.7,7.94a167.09,167.09,0,0,1-28.19,3.36C99.31,84.1,95,84,95,78.59c0-2.71,1.31-5.41,4.48-5.88,2.15-.28,11.76-.84,13.72-1V49.1h-9c-3.27,0-7.47,0-7.47-5.42s4.2-5.41,7.47-5.41h29.12c3.36,0,7.47,0,7.47,5.41s-4.11,5.42-7.47,5.42h-8.86Z"/><path class="cls-1" d="M213.83,36.4c-4.48,0-7.84,0-7.38-6.25-8.49,4.57-9.42,5.13-12.32,5.13-2.42,0-5.88-1.49-5.88-6.25,0-3.55,1.78-5,9-7.84,3.74-1.5,15-8.22,21.56-13.35C227.46,1,228.48.19,231.1.19c2.8,0,3.64.56,10.92,6,14.37,10.64,20.34,13.72,28.46,17.92,1.22.65,3.18,1.59,3.18,4.67,0,2.15-2,6.53-5.14,6.53-3.54,0-8-2.8-12-5.32.56,6.44-3,6.44-7.46,6.44ZM196.28,57.12c-3.73,0-7.47,0-7.47-5.6s3.74-5.6,7.47-5.6h70c3.64,0,7.47,0,7.47,5.51,0,5.69-3.64,5.69-7.47,5.69H224.19c-2.61,7.56-5.6,15.31-6,16.34,7-.47,17.93-1.31,31.18-3.18-.47-.65-2.52-3.36-2.89-3.92a5.71,5.71,0,0,1-.84-2.89c0-2.8,3-5.13,5.78-5.13s5.32,3,9.24,8c2.8,3.64,8.87,11.39,8.87,15,0,3.17-3.73,5.51-6.53,5.51s-3.18-.56-6.72-6.44c-22.87,4.66-50.22,5.6-55.35,5.6-2.9,0-8,0-8-6.16,0-5.42,4.11-5.6,12.51-5.79,3.26-7.65,6.34-16.15,6.62-17Zm53.11-31.64C241,20.25,240.52,20,233,13.81c-.46-.37-1.21-1-1.68-1-.28,0-.56,0-2,1.3a116,116,0,0,1-15,11.39Z"/><path class="cls-1" d="M294.93,58.62c-2.24,2.14-5.78,5.5-8.68,5.5-3.45,0-5.5-2.61-5.5-6,0-2.89.65-3.45,6.34-8.12,10.36-8.68,16.71-21.93,16.71-23.52,0-.75-.09-.75-1.59-.75h-12.6c-3.92,0-7.46,0-7.46-5.41,0-5.6,4-5.6,7.46-5.6h5V8.49c0-4.76,0-7.56,5.88-7.56,5,0,5,3.55,5,7.56v6.26h4.67c2.8,0,6.26,2.42,6.26,7.09,0,2.61-1.68,9.8-7.84,19.88a99.3,99.3,0,0,0,10.45,7,4.4,4.4,0,0,1,2.61,4.2,5.7,5.7,0,0,1-5.41,5.6c-2.71,0-5.88-2.24-10.36-6V78.87c0,4.48,0,7.47-5.7,7.47-5.32,0-5.32-2.9-5.32-7.47Zm41.82,13.81V33.7h-11.2c-3.55,0-7.47,0-7.47-5.51s3.83-5.51,7.47-5.51h11.2V8.49c0-3.73,0-7.56,5.6-7.56S348,4.85,348,8.49V22.68h10.18c3.54,0,7.46.09,7.46,5.51s-3.92,5.51-7.46,5.51H348V72.43h11.39c3.55,0,7.47,0,7.47,5.6s-3.92,5.51-7.47,5.51H322.56c-3.45,0-7.46,0-7.46-5.51s4-5.6,7.46-5.6Z"/><path class="cls-1" d="M460.79,73.46c0,5.13,0,10-6.53,10-7,0-7-4.38-7-10V41.72c-13.63,7.47-30.43,12.14-33.14,12.14-3.36,0-6.07-2.71-6.07-7.19,0-4.85,3.55-5.79,6.82-6.53A101.28,101.28,0,0,0,467,9.71a52,52,0,0,1,3.83-4.48,5.94,5.94,0,0,1,3.83-1.31c2.61,0,6.81,2.71,6.81,6.72a6.78,6.78,0,0,1-2.05,4.57,117.92,117.92,0,0,1-18.67,17.55Z"/><path class="cls-1" d="M491,73.27c0-5.51,4.38-5.88,6-6.07,11.39-1.12,28.47-2.89,43.31-16.89,8.49-8,11.39-16.15,14.19-23.62a5.41,5.41,0,0,1,5.32-4c3.45,0,7.09,2.05,7.09,6.07,0,1.77-3.36,17.08-17.55,30.61A75.9,75.9,0,0,1,497.84,79.9C492.71,79.9,491,76.72,491,73.27ZM515.2,34.16c-2.61,0-3.36-.65-10.64-6.53-1.68-1.31-9-6.54-10.45-7.66a6.15,6.15,0,0,1-2.9-5.13c0-3.92,2.8-7.19,6.44-7.19,2.06,0,3,.1,12.51,7.28,11.57,8.68,11.57,10.55,11.57,12.88A6.54,6.54,0,0,1,515.2,34.16Z"/><path class="cls-1" d="M587,42.84c-4.76,0-10,0-10-6.16s5.22-6.16,10-6.16h60.39c4.76,0,10,0,10,6.16s-5.23,6.16-10,6.16H626.08c-.56,13.82-4.85,23.62-11.57,30.15a37,37,0,0,1-23.15,10.17c-3.36,0-6.35-2.24-6.35-6.62,0-4.86,3.18-5.7,8-6.82,12.32-3,19.32-9.33,20.07-26.88ZM639.52,6.53c3.74,0,5,.1,6.26.47a5.94,5.94,0,0,1,.93,10.55c-1.31.93-3.08.93-7.19.93H593.6c-4.11,0-5.79-.09-7.09-.93a5.85,5.85,0,0,1-2.8-5,6.06,6.06,0,0,1,2.7-5c1.4-.84,3.18-.94,7.19-.94Z"/><path class="cls-1" d="M679.94,38.46c0,4.94,0,10-6.91,10s-6.81-5.13-6.81-10V13.91c0-4.86,0-10,6.81-10s6.91,5.13,6.91,10Zm44.52,4.94c0,12.23-3,24.46-16.15,33a46.6,46.6,0,0,1-22.12,7.28c-3.73,0-6.53-2.7-6.53-6.9,0-5.51,4.76-6.16,7.18-6.44,6.91-.94,17-4.48,21.38-11.58,2.14-3.45,3.36-12.13,3.36-15.49V13.44c0-5,0-10,6.44-10s6.44,5,6.44,10Z"/><path class="cls-1" d="M807.43,7.65c9.52,0,10.64,8.4,10.64,11.2,0,14.29-16.14,30.06-24.36,30.06a6.93,6.93,0,0,1-6.81-7c0-3.27,2-4.39,5-6.07,5.6-3.08,12.6-9,12.6-14.56,0-1-.47-1-2.43-1H747.14c-4.86,0-10,0-10-6.34s5.13-6.26,10-6.26ZM779.62,34.82c0,7.93-.66,25.29-12.7,37.05-6.72,6.44-16.8,10.73-20.06,10.73-2.9,0-6-2.33-6-7.09,0-4,2.24-5,3.92-5.69,15.12-6.44,21.66-12.14,21.75-36.22,0-4.2,2.15-7.18,6.25-7.18C779.62,26.42,779.62,31.55,779.62,34.82Z"/><path class="cls-1" d="M859.14,73V9.43c0-3.74,0-7.75,6.06-7.75,5.88,0,5.88,4.11,5.88,7.75V73h17.46c3.45,0,4,0,4-4.2V20.91c0-3.27,0-7.66,6.07-7.66,5.6,0,5.6,3.74,5.6,7.66v51.8c0,1.68-.28,11.39-9.89,11.39H836c-6.25,0-9.71-4.3-9.71-9.34V20.91c0-3.46,0-7.66,5.88-7.66,5.7,0,5.7,5,5.7,7.66v47c0,5.13.46,5.13,5.13,5.13Z"/><path class="cls-1" d="M955.09,29.31a131.29,131.29,0,0,0,28.09,15.12c1.87.75,4.29,1.68,4.29,5.51,0,1.3-.28,5.78-5.41,5.78-3.17,0-17.73-5.32-27-12.6V78.68c0,2.15,0,7.47-6,7.47s-5.88-5.23-5.88-7.47V15.87H917.94c-3.46,0-7.47,0-7.47-5.32,0-5.6,3.73-5.6,7.47-5.6h69.72c3.45,0,7.47,0,7.47,5.32,0,5.6-3.74,5.6-7.47,5.6H955.09Z"/><path class="cls-1" d="M3.15,161.27V117.52a3.93,3.93,0,0,0-.51-2.3,3.33,3.33,0,0,0-2-1V113h11v1.24a3.64,3.64,0,0,0-2,1,3.92,3.92,0,0,0-.5,2.28v43.75a4,4,0,0,0,.48,2.29,3.56,3.56,0,0,0,2,1v1.24H.67V164.6a3.53,3.53,0,0,0,2-1A4,4,0,0,0,3.15,161.27Z"/><path class="cls-1" d="M24.73,131.42v31.13a2.94,2.94,0,0,0,.38,1.7,2.59,2.59,0,0,0,1.48.79V166H18.73V165a2.64,2.64,0,0,0,1.5-.78,3,3,0,0,0,.36-1.71V129.83a3,3,0,0,0-.38-1.72,2.47,2.47,0,0,0-1.48-.77v-.93H30.1v.93c-.91.31-1.36.74-1.36,1.3,0,.39.45,1.11,1.36,2.18L54,158.7V129.83a3,3,0,0,0-.38-1.72,2.47,2.47,0,0,0-1.48-.77v-.93H60v.93a2.47,2.47,0,0,0-1.48.77,3,3,0,0,0-.38,1.72v32.72a2.91,2.91,0,0,0,.38,1.71A2.65,2.65,0,0,0,60,165V166H50.82V165c.88-.23,1.33-.62,1.33-1.18a4.33,4.33,0,0,0-1.22-2.09Z"/><path class="cls-1" d="M83.86,130.18v32.37a2.94,2.94,0,0,0,.38,1.7,2.59,2.59,0,0,0,1.48.79V166H77.46V165a2.65,2.65,0,0,0,1.47-.78,2.84,2.84,0,0,0,.38-1.71V130.18H65.92a3,3,0,0,0-1.72.37,2.44,2.44,0,0,0-.77,1.48H62.5v-7.47h.93A2.47,2.47,0,0,0,64.2,126a3,3,0,0,0,1.72.37H97.25A3,3,0,0,0,99,126a2.52,2.52,0,0,0,.76-1.48h.93V132h-.93a2.49,2.49,0,0,0-.76-1.48,3,3,0,0,0-1.73-.37Z"/><path class="cls-1" d="M109.66,147v14.7H135a3,3,0,0,0,1.72-.38,2.5,2.5,0,0,0,.77-1.48h.93v7.48h-.93a2.65,2.65,0,0,0-.79-1.48,3,3,0,0,0-1.73-.38H103.25v-.93a2.64,2.64,0,0,0,1.5-.78,3,3,0,0,0,.36-1.71V129.33a2.91,2.91,0,0,0-.38-1.71,2.65,2.65,0,0,0-1.48-.78v-.93h31.39a2.93,2.93,0,0,0,1.71-.37,2.71,2.71,0,0,0,.79-1.48h.92v7.47h-.92a2.6,2.6,0,0,0-.77-1.47,3,3,0,0,0-1.73-.38h-25v13.56H126a3,3,0,0,0,1.72-.37,2.56,2.56,0,0,0,.77-1.48h.93v7.48h-.93a2.53,2.53,0,0,0-.77-1.48A3,3,0,0,0,126,147Z"/><path class="cls-1" d="M150,148.18v14.38a2.92,2.92,0,0,0,.37,1.69,2.62,2.62,0,0,0,1.48.79V166H143.6V165a2.68,2.68,0,0,0,1.48-.78,2.91,2.91,0,0,0,.38-1.71V129.83a3,3,0,0,0-.38-1.72,2.5,2.5,0,0,0-1.48-.77v-.93h21.71a40.77,40.77,0,0,1,7.06.48,12.68,12.68,0,0,1,4.5,1.67,9.15,9.15,0,0,1,3.19,3.34,10.59,10.59,0,0,1,1.39,5.42,9.76,9.76,0,0,1-3,7.39,13,13,0,0,1-8.24,3.26l10,15.63a2.9,2.9,0,0,0,2.61,1.44V166h-9.15V165c.94-.15,1.42-.42,1.42-.8a7.15,7.15,0,0,0-1-1.89l-9-14.17Zm0-3.77h16a32,32,0,0,0,4.95-.28,8.58,8.58,0,0,0,2.94-1q3-1.74,3-5.82t-3.07-5.86a9.1,9.1,0,0,0-3-1,37.41,37.41,0,0,0-5.17-.26H150Z"/><path class="cls-1" d="M188.7,162.55V129.83a2.88,2.88,0,0,0-.38-1.72,2.47,2.47,0,0,0-1.47-.77v-.93h8.26v.93a2.65,2.65,0,0,0-1.48.78,2.91,2.91,0,0,0-.38,1.71v32.72a3,3,0,0,0,.36,1.71,2.61,2.61,0,0,0,1.5.78V166h-8.26V165a2.61,2.61,0,0,0,1.49-.78A3,3,0,0,0,188.7,162.55Z"/><path class="cls-1" d="M224.06,125.71q10.47,0,16.87,5.48a19.07,19.07,0,0,1,5.39,7.45,20.4,20.4,0,0,1,1.48,7.8A19,19,0,0,1,244.58,157a19.78,19.78,0,0,1-9.82,7.85,29.56,29.56,0,0,1-10.64,1.8q-10.41,0-16.78-5.48a19.85,19.85,0,0,1,6.17-33.68A30.8,30.8,0,0,1,224.06,125.71Zm0,4q-8.9,0-14.08,5a16.32,16.32,0,0,0,0,23q5.16,5,14.14,5t14.2-5a15.11,15.11,0,0,0,4.73-11.3,15.41,15.41,0,0,0-4.73-11.74,16.44,16.44,0,0,0-6.08-3.74A26,26,0,0,0,224.06,129.69Z"/><path class="cls-1" d="M259.54,148.18v14.38a2.91,2.91,0,0,0,.38,1.69,2.59,2.59,0,0,0,1.48.79V166h-8.26V165a2.65,2.65,0,0,0,1.47-.78,2.91,2.91,0,0,0,.38-1.71V129.83a3,3,0,0,0-.38-1.72,2.47,2.47,0,0,0-1.47-.77v-.93h21.7a40.69,40.69,0,0,1,7.06.48,12.81,12.81,0,0,1,4.51,1.67,9.31,9.31,0,0,1,3.19,3.34,10.69,10.69,0,0,1,1.39,5.42,9.76,9.76,0,0,1-3,7.39,13,13,0,0,1-8.25,3.26L289.8,163.6a2.9,2.9,0,0,0,2.61,1.44V166h-9.16V165c.95-.15,1.42-.42,1.42-.8a7.29,7.29,0,0,0-1-1.89l-9-14.17Zm0-3.77h16a31.82,31.82,0,0,0,4.94-.28,8.58,8.58,0,0,0,2.94-1q3-1.74,3-5.82c0-2.75-1-4.7-3.07-5.86a9.1,9.1,0,0,0-3-1,37.58,37.58,0,0,0-5.18-.26H259.54Z"/><path class="cls-1" d="M331.23,142.22v18.85a3.89,3.89,0,0,0,.5,2.27,3.51,3.51,0,0,0,2,1.06v1.24h-11V164.4a3.71,3.71,0,0,0,2-1,4,4,0,0,0,.5-2.29V142.22l-17.09-22.38a43.4,43.4,0,0,0-3.85-4.61,5.11,5.11,0,0,0-2.66-1.24v-1.24H315V114c-1.21.31-1.82.81-1.82,1.51s.61,2.1,1.82,3.76l13.43,18.28,13.39-18.9c1.13-1.6,1.7-2.69,1.7-3.26s-.57-1.1-1.7-1.39v-1.24h12.49V114a6,6,0,0,0-3.25,1.7,41.76,41.76,0,0,0-3.61,4.15Z"/><path class="cls-1" d="M371.91,154.87H350.75l-3.48,7.51a4.34,4.34,0,0,0-.49,1.51c0,.58.57,1,1.71,1.15V166h-8.82V165a3.12,3.12,0,0,0,1.81-.86,12.69,12.69,0,0,0,1.64-2.9L357.61,130a4.62,4.62,0,0,0,.52-1.53c0-.5-.47-.88-1.42-1.13v-.93h9.62v.93c-.95.31-1.42.71-1.42,1.22a4.89,4.89,0,0,0,.52,1.44l13.89,30.15a26.4,26.4,0,0,0,2,3.91,4.24,4.24,0,0,0,2.15,1V166H374.1V165c1.12-.15,1.68-.57,1.68-1.27a5.53,5.53,0,0,0-.63-1.8Zm-1.67-3.77-8.91-19.54-8.9,19.54Z"/><path class="cls-1" d="M409,166l-16.65-33.26v29.84a2.87,2.87,0,0,0,.38,1.7,2.59,2.59,0,0,0,1.47.79V166h-7.82V165a2.72,2.72,0,0,0,1.48-.78,2.93,2.93,0,0,0,.37-1.71V129.83a3,3,0,0,0-.37-1.72,2.54,2.54,0,0,0-1.48-.77v-.93h10.24v.93c-1,.33-1.42.73-1.42,1.22a9.66,9.66,0,0,0,.95,2.23l13.18,26.08,13.24-26.31a5.33,5.33,0,0,0,.7-2c0-.5-.48-.91-1.42-1.24v-.93h10.35v.93a2.68,2.68,0,0,0-1.48.78,2.93,2.93,0,0,0-.37,1.71v32.72a3,3,0,0,0,.37,1.7,2.62,2.62,0,0,0,1.48.79V166H424V165a2.61,2.61,0,0,0,1.49-.78,3,3,0,0,0,.36-1.71V132.71Z"/><path class="cls-1" d="M467.79,154.87H446.63l-3.48,7.51a4.43,4.43,0,0,0-.5,1.51c0,.58.58,1,1.72,1.15V166h-8.83V165a3.12,3.12,0,0,0,1.82-.86,12.39,12.39,0,0,0,1.63-2.9L453.49,130a4.88,4.88,0,0,0,.52-1.53c0-.5-.48-.88-1.42-1.13v-.93h9.62v.93c-.95.31-1.42.71-1.42,1.22a4.89,4.89,0,0,0,.52,1.44l13.88,30.15a26,26,0,0,0,2,3.91,4.24,4.24,0,0,0,2.15,1V166H470V165c1.12-.15,1.68-.57,1.68-1.27A5.53,5.53,0,0,0,471,162Zm-1.67-3.77-8.91-19.54-8.9,19.54Z"/><path class="cls-1" d="M519.42,128.87l-4.14,7.48-.81-.43a6.77,6.77,0,0,0,.49-1.63c0-.58-.71-1.2-2.14-1.88a28.76,28.76,0,0,0-12.35-2.72,20.5,20.5,0,0,0-9.33,2,8.3,8.3,0,0,0-3,2.55,5.54,5.54,0,0,0-1.12,3.29,4.81,4.81,0,0,0,.87,2.74,5.29,5.29,0,0,0,2.29,1.92,12.63,12.63,0,0,0,3.7,1q2.13.27,6.94.42a93.13,93.13,0,0,1,9.53.62,13.81,13.81,0,0,1,4.73,1.46,9,9,0,0,1,4.92,8.38,10.57,10.57,0,0,1-4.46,8.78q-4.95,3.82-13.65,3.83a33.43,33.43,0,0,1-8.75-1,45.43,45.43,0,0,1-8.93-3.73,7.66,7.66,0,0,0-1.71-.67c-.29,0-.74.35-1.36,1l-.78-.49,4.34-7.28.81.47a4.92,4.92,0,0,0-.55,1.56q0,.93,3.71,2.87a29.38,29.38,0,0,0,6.42,2.51,27.89,27.89,0,0,0,6.71.77q7.34,0,11.13-3.22a6.5,6.5,0,0,0,2.52-5.1q0-3.88-4.31-5.36a11.74,11.74,0,0,0-2.89-.63q-1.49-.12-8.48-.39a53.73,53.73,0,0,1-7.81-.75,16.74,16.74,0,0,1-5-1.8,8.59,8.59,0,0,1-3.26-3.24,9,9,0,0,1-1.2-4.55,9.65,9.65,0,0,1,3.13-7.22A16,16,0,0,1,492,127a29.92,29.92,0,0,1,8.95-1.27,33,33,0,0,1,7.38.79,42.53,42.53,0,0,1,7.69,2.72,5,5,0,0,0,1.19.41c.35,0,.82-.39,1.42-1.17Z"/><path class="cls-1" d="M559,147.51h-27.1v15a3,3,0,0,0,.36,1.71,2.61,2.61,0,0,0,1.49.78V166h-8.26V165a2.61,2.61,0,0,0,1.49-.78,3,3,0,0,0,.37-1.71V129.83a3,3,0,0,0-.38-1.72,2.47,2.47,0,0,0-1.48-.77v-.93h8.26v.93a2.68,2.68,0,0,0-1.48.78,2.93,2.93,0,0,0-.37,1.71v13.91H559V129.83a3,3,0,0,0-.38-1.72,2.47,2.47,0,0,0-1.48-.77v-.93h8.26v.93a2.68,2.68,0,0,0-1.48.78,2.93,2.93,0,0,0-.37,1.71v32.72a3,3,0,0,0,.37,1.7,2.62,2.62,0,0,0,1.48.79V166h-8.26V165a2.65,2.65,0,0,0,1.48-.78,2.91,2.91,0,0,0,.38-1.71Z"/><path class="cls-1" d="M574.78,162.55V129.83a3,3,0,0,0-.37-1.72,2.5,2.5,0,0,0-1.48-.77v-.93h8.26v.93a2.65,2.65,0,0,0-1.48.78,2.91,2.91,0,0,0-.38,1.71v32.72a2.93,2.93,0,0,0,.37,1.71,2.61,2.61,0,0,0,1.49.78V166h-8.26V165a2.61,2.61,0,0,0,1.49-.78A3,3,0,0,0,574.78,162.55Z"/><path class="cls-1" d="M606.32,130.18v32.37a2.87,2.87,0,0,0,.38,1.7,2.59,2.59,0,0,0,1.47.79V166h-8.26V165a2.65,2.65,0,0,0,1.48-.78,2.91,2.91,0,0,0,.38-1.71V130.18H588.38a3,3,0,0,0-1.73.37,2.44,2.44,0,0,0-.76,1.48H585v-7.47h.93a2.47,2.47,0,0,0,.76,1.48,3,3,0,0,0,1.73.37h31.33a3,3,0,0,0,1.72-.37,2.47,2.47,0,0,0,.77-1.48h.93V132h-.93a2.44,2.44,0,0,0-.77-1.48,3,3,0,0,0-1.72-.37Z"/><path class="cls-1" d="M650.22,154.87H629.06l-3.48,7.51a4.34,4.34,0,0,0-.49,1.51c0,.58.57,1,1.71,1.15V166H618V165a3.12,3.12,0,0,0,1.81-.86,12.69,12.69,0,0,0,1.64-2.9L635.92,130a4.88,4.88,0,0,0,.52-1.53c0-.5-.48-.88-1.42-1.13v-.93h9.62v.93c-.95.31-1.42.71-1.42,1.22a4.89,4.89,0,0,0,.52,1.44l13.89,30.15a26.4,26.4,0,0,0,2,3.91,4.24,4.24,0,0,0,2.15,1V166h-9.39V165c1.12-.15,1.68-.57,1.68-1.27a5.53,5.53,0,0,0-.63-1.8Zm-1.67-3.77-8.91-19.54-8.9,19.54Z"/><path class="cls-1" d="M723.94,117l-5,10-1-.58a10.09,10.09,0,0,0,.6-2.17c0-.78-.86-1.61-2.58-2.52a31.79,31.79,0,0,0-14.86-3.64,22.67,22.67,0,0,0-11.23,2.67,10.27,10.27,0,0,0-3.64,3.4,8,8,0,0,0-1.35,4.41,6.87,6.87,0,0,0,1.05,3.65,6.65,6.65,0,0,0,2.75,2.57,14.1,14.1,0,0,0,4.45,1.34q2.57.36,8.35.56a103.74,103.74,0,0,1,11.48.83,15.41,15.41,0,0,1,5.68,2q5.93,3.67,5.93,11.2a14.72,14.72,0,0,1-5.37,11.74q-6,5.11-16.43,5.11a36.79,36.79,0,0,1-10.53-1.35,52.22,52.22,0,0,1-10.74-5,8.36,8.36,0,0,0-2.06-.89c-.35,0-.89.46-1.64,1.39l-.94-.66,5.23-9.72,1,.62a6.89,6.89,0,0,0-.66,2.09q0,1.24,4.46,3.84a33.22,33.22,0,0,0,7.73,3.35,30.33,30.33,0,0,0,8.07,1q8.82,0,13.39-4.3a9.07,9.07,0,0,0,3-6.82q0-5.19-5.19-7.17a13.32,13.32,0,0,0-3.47-.83c-1.2-.11-4.6-.29-10.2-.52a59.44,59.44,0,0,1-9.4-1,18.69,18.69,0,0,1-6.05-2.4,10.87,10.87,0,0,1-3.92-4.34,13,13,0,0,1-1.45-6.08,13.62,13.62,0,0,1,3.76-9.65,18.67,18.67,0,0,1,7.71-4.63,32.89,32.89,0,0,1,10.78-1.69,35.18,35.18,0,0,1,8.87,1.06,48.14,48.14,0,0,1,9.26,3.62,5.23,5.23,0,0,0,1.43.55q.63,0,1.71-1.56Z"/><path class="cls-1" d="M733,162.55V129.83a3.17,3.17,0,0,0-.34-1.72,2.17,2.17,0,0,0-1.33-.77v-.93h7.44v.93a2.32,2.32,0,0,0-1.33.78,3.13,3.13,0,0,0-.34,1.71v32.72a3.36,3.36,0,0,0,.32,1.71,2.32,2.32,0,0,0,1.35.78V166h-7.44V165a2.32,2.32,0,0,0,1.35-.78A3.36,3.36,0,0,0,733,162.55Z"/><path class="cls-1" d="M752.06,131.42v31.13a3.16,3.16,0,0,0,.34,1.7,2.28,2.28,0,0,0,1.33.79V166h-7.07V165a2.29,2.29,0,0,0,1.34-.78,3.24,3.24,0,0,0,.33-1.71V129.83a3.27,3.27,0,0,0-.34-1.72,2.2,2.2,0,0,0-1.33-.77v-.93h10.23v.93c-.82.31-1.23.74-1.23,1.3a5.09,5.09,0,0,0,1.23,2.18l21.46,27.88V129.83a3.17,3.17,0,0,0-.34-1.72,2.17,2.17,0,0,0-1.33-.77v-.93h7.07v.93a2.2,2.2,0,0,0-1.33.77,3.17,3.17,0,0,0-.34,1.72v32.72a3.13,3.13,0,0,0,.34,1.71,2.36,2.36,0,0,0,1.33.78V166h-8.22V165c.8-.23,1.2-.62,1.2-1.18a4.43,4.43,0,0,0-1.09-2.09Z"/><path class="cls-1" d="M823.77,129.83,819.91,137l-.7-.46a5.93,5.93,0,0,0,.23-1.37q0-1.18-3.34-3a20.67,20.67,0,0,0-10-2.49q-7.3,0-11.85,4.48A15.94,15.94,0,0,0,789.63,146a16.28,16.28,0,0,0,4.8,12,15.54,15.54,0,0,0,11.45,4.66,17.63,17.63,0,0,0,11.73-4.31c1.54-1.29,2.3-2.21,2.3-2.75a3.79,3.79,0,0,0-.44-1.33l.62-.55,4.65,6.26-.66.58a1.94,1.94,0,0,0-1.2-.73c-.19,0-.52.21-1,.61a39.19,39.19,0,0,1-4,3,18.46,18.46,0,0,1-3.45,1.7,24,24,0,0,1-8.56,1.48q-9,0-14.63-5.57a19.94,19.94,0,0,1-5.92-14.86,20.76,20.76,0,0,1,3.7-12.35q5.79-8.17,17.35-8.18a27.42,27.42,0,0,1,14.79,4.5,1.66,1.66,0,0,0,.65.29c.23,0,.64-.37,1.23-1.1Z"/><path class="cls-1" d="M833,147.51v14.7h22.83a2.48,2.48,0,0,0,1.55-.38,2.68,2.68,0,0,0,.69-1.48h.83v7.48h-.83a2.64,2.64,0,0,0-.72-1.48,2.46,2.46,0,0,0-1.55-.38H827.22V165a2.29,2.29,0,0,0,1.34-.78,3.24,3.24,0,0,0,.33-1.71V129.83a3.23,3.23,0,0,0-.34-1.71,2.36,2.36,0,0,0-1.33-.78v-.93h28.25A2.43,2.43,0,0,0,857,126a2.78,2.78,0,0,0,.7-1.48h.83V132h-.83a2.72,2.72,0,0,0-.69-1.47,2.48,2.48,0,0,0-1.55-.38H833v13.56h14.74a2.46,2.46,0,0,0,1.55-.37,2.55,2.55,0,0,0,.69-1.48h.84v7.48H850a2.52,2.52,0,0,0-.69-1.48,2.46,2.46,0,0,0-1.55-.38Z"/><path class="cls-1" d="M875.9,130.26a10.08,10.08,0,0,1-4,2,1.62,1.62,0,0,0-1,.37,3.65,3.65,0,0,0-.38,1.29h-.88V125.7h.88a7.36,7.36,0,0,0,.3,1.69c.09.17.31.26.67.26a5.11,5.11,0,0,0,2.84-1.12c1-.74,1.57-1.43,1.57-2,0-.43-.59-.76-1.76-1v-1.09h7.63v1.09a2.38,2.38,0,0,0-1.4.83,3.51,3.51,0,0,0-.36,1.85v36a3.4,3.4,0,0,0,.36,1.83,2.55,2.55,0,0,0,1.4.85V166h-7.63v-1.08a2.35,2.35,0,0,0,1.4-.83,3.51,3.51,0,0,0,.36-1.85Z"/><path class="cls-1" d="M895.09,142.68a10.16,10.16,0,0,1-3.92-2.56,9.61,9.61,0,0,1-2.5-6.73,10.35,10.35,0,0,1,2.31-6.67q4-5.07,13.77-5.07,7.11,0,11.45,2.9a10.76,10.76,0,0,1,3.54,4,10.58,10.58,0,0,1,1.1,4.82,9.7,9.7,0,0,1-1.62,5.66,10.25,10.25,0,0,1-4.8,3.63,12,12,0,0,1,4,2.36A10.93,10.93,0,0,1,922,153.4a12.76,12.76,0,0,1-1.81,6.51q-4,6.83-15.43,6.83-8.67,0-13.31-4.21a11.53,11.53,0,0,1-2.86-4.1,12.62,12.62,0,0,1-1.06-5,11,11,0,0,1,2-6.51A11.81,11.81,0,0,1,895.09,142.68Zm9.58,2q-6.28,0-9.82,2.68a7.24,7.24,0,0,0-3,6.13,7.33,7.33,0,0,0,3,6.16q3.54,2.67,9.9,2.68t9.91-2.68a7.71,7.71,0,0,0,3-6,7.38,7.38,0,0,0-3-6.26Q911.15,144.75,904.67,144.72Zm0-18.7q-5.79,0-9.08,2.23a6.15,6.15,0,0,0,0,10.31c2.19,1.49,5.25,2.23,9.16,2.23s7-.74,9.2-2.23a5.81,5.81,0,0,0,2.77-5,6.13,6.13,0,0,0-3.16-5.52Q910.41,126.05,904.67,126Z"/><path class="cls-1" d="M952.68,126.78H927.43a2.57,2.57,0,0,0-1.64.41,2.88,2.88,0,0,0-.72,1.64h-.88v-8.46h.88a2.85,2.85,0,0,0,.72,1.63,2.51,2.51,0,0,0,1.64.41h26.65a2.48,2.48,0,0,0,1.63-.41,2.91,2.91,0,0,0,.73-1.63h.87v6L939.59,163a2.63,2.63,0,0,0-.33,1c0,.49.55.77,1.67.83V166H932.5v-1.08a3.85,3.85,0,0,0,1.51-.46,2.67,2.67,0,0,0,.9-1.1Z"/><path class="cls-1" d="M990.91,126.78H965.66a2.54,2.54,0,0,0-1.63.41,3,3,0,0,0-.73,1.64h-.88v-8.46h.88A2.91,2.91,0,0,0,964,122a2.48,2.48,0,0,0,1.63.41h26.65a2.48,2.48,0,0,0,1.63-.41,2.85,2.85,0,0,0,.73-1.63h.88v6L977.82,163a2.63,2.63,0,0,0-.33,1c0,.49.56.77,1.67.83V166h-8.43v-1.08a3.8,3.8,0,0,0,1.51-.46,2.77,2.77,0,0,0,.91-1.1Z"/></g></g></svg>